<svg xmlns="http://www.w3.org/2000/svg" viewBox="0 0 600 600" fill="none">
  <defs>
    <linearGradient id="bg" x1="0" y1="0" x2="600" y2="600">
      <stop stop-color="#0a0a12"/>
      <stop offset="1" stop-color="#0e0e18"/>
    </linearGradient>
    <linearGradient id="acc" x1="0" y1="0" x2="1" y2="1">
      <stop stop-color="#4fd1ff"/>
      <stop offset="1" stop-color="#bfeaff"/>
    </linearGradient>
    <linearGradient id="glass" x1="0" y1="0" x2="1" y2="1">
      <stop stop-color="#4fd1ff" stop-opacity="0.18"/>
      <stop offset="1" stop-color="#bfeaff" stop-opacity="0.04"/>
    </linearGradient>
  </defs>
  <rect width="600" height="600" fill="url(#bg)"/>
  <circle cx="300" cy="300" r="200" stroke="#4fd1ff" stroke-opacity="0.12"/>
  <rect x="200" y="130" width="200" height="340" rx="12" fill="#181a24" stroke="#3a3d4d" stroke-width="3"/>
  <path d="M200 142 h200 v26 h-200 z" fill="#1f222e"/>
  <rect x="218" y="186" width="164" height="240" rx="8" fill="url(#glass)" stroke="url(#acc)" stroke-width="2.5"/>
  <g stroke="#4fd1ff" stroke-opacity="0.45" stroke-width="3">
    <path d="M236 226 h128"/>
    <path d="M236 260 h128"/>
    <path d="M236 294 h128"/>
  </g>
  <circle cx="300" cy="368" r="26" fill="#12131c" stroke="#4fd1ff" stroke-opacity="0.5" stroke-width="2"/>
  <g stroke="#bfeaff" stroke-opacity="0.25" stroke-width="6" stroke-linecap="round">
    <path d="M250 200 l60 210"/>
    <path d="M290 200 l60 210"/>
  </g>
  <path d="M208 470 v10 M392 470 v10" stroke="#3a3d4d" stroke-width="6"/>
  <text x="300" y="560" text-anchor="middle" fill="#e8eaf2" font-family="Arial" font-size="18" font-weight="700" letter-spacing="8">ATX · CRISTAL</text>
</svg>
